<?xml version="1.0" standalone="no"?>
<!DOCTYPE svg PUBLIC "-//W3C//DTD SVG 20010904//EN"
 "http://www.w3.org/TR/2001/REC-SVG-20010904/DTD/svg10.dtd">
<svg version="1.0" xmlns="http://www.w3.org/2000/svg"
 width="1024.000000pt" height="1024.000000pt" viewBox="0 0 1024.000000 1024.000000"
 preserveAspectRatio="xMidYMid meet">

<g transform="translate(0.000000,1024.000000) scale(0.100000,-0.100000)"
fill="#000000" stroke="none">
<path d="M4610 7347 c-14 -12 -48 -40 -74 -62 -27 -22 -126 -122 -221 -222
-156 -163 -174 -185 -180 -225 -4 -23 -12 -58 -18 -76 -9 -27 -9 -35 3 -42 11
-7 12 -10 2 -10 -9 0 -11 -7 -6 -22 6 -20 5 -21 -10 -9 -23 19 -20 6 7 -30 20
-28 22 -42 22 -148 0 -66 5 -124 10 -132 6 -8 17 -32 24 -54 14 -39 49 -97 64
-103 4 -2 7 -10 7 -17 0 -32 168 -215 197 -215 5 0 23 -13 41 -30 18 -16 39
-30 47 -30 8 0 16 -4 20 -9 3 -6 13 -10 23 -10 9 1 44 -7 77 -17 81 -24 244
-22 340 5 142 39 195 62 254 109 25 21 89 72 141 114 105 84 240 214 271 262
14 21 6 15 -24 -16 -25 -27 -50 -48 -57 -48 -6 0 -8 -4 -5 -10 6 -10 -9 -15
-30 -10 -5 1 -7 -2 -3 -5 4 -4 -4 -17 -18 -28 -22 -17 -27 -18 -35 -6 -7 11
-9 12 -9 0 0 -7 -6 -11 -15 -8 -8 4 -17 1 -21 -5 -5 -7 2 -9 19 -6 15 3 24 1
21 -3 -3 -5 -13 -9 -22 -9 -9 0 -26 -7 -36 -15 -29 -22 -43 -18 -17 4 18 15
19 20 6 24 -8 4 -29 -1 -47 -9 -20 -9 -24 -13 -10 -10 12 2 22 0 22 -5 0 -5
-17 -9 -37 -10 -33 -1 -35 -2 -13 -9 l25 -7 -29 -12 c-16 -6 -31 -9 -34 -6 -3
3 1 5 8 5 8 0 3 8 -10 20 -13 11 -32 20 -44 20 -12 0 -37 3 -57 6 -25 4 -40 1
-52 -10 -11 -11 -32 -16 -72 -15 -55 2 -75 -4 -61 -18 4 -4 16 -2 26 5 13 8
20 8 20 2 0 -15 -27 -23 -47 -14 -10 4 -25 9 -33 10 -41 7 -127 47 -142 67
-10 12 -18 18 -18 14 0 -11 -60 25 -60 36 0 4 10 1 22 -7 26 -19 38 -20 38 -5
0 5 -5 7 -12 3 -7 -5 -9 -2 -5 9 3 9 0 18 -9 21 -9 3 -12 1 -9 -4 9 -15 -8
-12 -33 6 -13 9 -21 21 -19 28 3 6 -4 12 -14 12 -16 0 -15 -4 9 -30 l27 -30
-35 26 c-19 14 -34 33 -34 42 1 8 -5 17 -13 20 -9 4 -12 1 -7 -7 4 -6 -2 -3
-13 8 -16 15 -18 23 -9 34 9 12 8 14 -5 9 -16 -6 -59 39 -59 62 0 5 -4 10 -9
10 -13 0 -60 111 -81 196 -35 135 -21 326 34 455 22 52 80 149 110 183 24 27
30 37 24 36 -2 0 -14 -11 -28 -23z m483 -1194 c-7 -2 -19 -2 -25 0 -7 3 -2 5
12 5 14 0 19 -2 13 -5z m80 0 c-7 -2 -21 -2 -30 0 -10 3 -4 5 12 5 17 0 24 -2
18 -5z m70 0 c-7 -2 -21 -2 -30 0 -10 3 -4 5 12 5 17 0 24 -2 18 -5z"/>
<path d="M5358 7132 c-50 -33 -329 -315 -320 -324 4 -4 61 46 128 114 65 67
135 138 154 158 19 19 46 43 60 52 14 9 21 17 15 17 -5 1 -22 -7 -37 -17z"/>
<path d="M4735 6869 c-4 -6 -5 -12 -2 -15 2 -3 7 2 10 11 7 17 1 20 -8 4z"/>
<path d="M4716 6813 c-4 -10 -14 -31 -23 -48 -25 -46 -29 -127 -8 -183 23 -62
98 -136 153 -153 52 -15 126 -1 184 37 21 13 43 24 50 24 7 0 -7 17 -32 38
-24 20 -70 62 -100 92 -226 220 -217 213 -224 193z"/>
<path d="M6051 6610 c-28 -22 -75 -70 -105 -105 -58 -71 -62 -94 -31 -168 37
-88 99 -123 198 -112 59 7 94 28 182 108 l60 55 -42 -5 c-75 -10 -157 39 -194
114 -17 36 -20 56 -16 99 3 30 4 54 2 54 -2 0 -26 -18 -54 -40z"/>
<path d="M3661 6521 c-109 -108 -111 -112 -90 -197 9 -33 23 -55 57 -84 42
-38 48 -40 109 -40 51 0 71 5 106 27 61 38 188 135 184 140 -2 2 -17 -1 -33
-7 -53 -21 -130 6 -183 62 -40 43 -55 89 -48 149 3 27 4 49 2 49 -2 0 -49 -45
-104 -99z"/>
<path d="M5695 6450 c-9 -16 -13 -30 -11 -30 3 0 12 14 21 30 9 17 13 30 11
30 -3 0 -12 -13 -21 -30z"/>
<path d="M4830 6241 c0 -15 50 -30 82 -26 25 4 28 3 13 -4 -17 -7 -15 -10 18
-16 26 -5 42 -4 50 4 9 10 5 11 -18 6 -27 -6 -28 -5 -12 8 16 13 16 15 2 21
-10 3 -13 2 -10 -5 4 -6 -3 -7 -22 -2 -15 4 -38 7 -50 6 -13 0 -21 2 -19 6 3
4 -4 8 -15 8 -10 1 -19 -2 -19 -6z"/>
<path d="M5017 6222 c10 -10 17 -12 25 -4 6 6 26 8 44 5 22 -4 34 -2 34 6 0 8
-20 11 -59 9 -51 -2 -56 -4 -44 -16z"/>
<path d="M4167 5684 c-4 -16 -9 -91 -13 -167 -6 -122 -8 -137 -23 -131 -139
57 -282 -10 -320 -151 -11 -42 -15 -183 -5 -208 11 -30 49 -6 82 51 18 31 42
68 53 82 l20 25 -6 -24 c-5 -16 -4 -21 4 -17 6 4 11 1 12 -6 3 -34 5 -46 17
-88 29 -101 35 -116 53 -133 11 -10 20 -27 20 -37 2 -24 3 -28 17 -63 7 -16
12 -32 12 -36 0 -4 11 -31 25 -59 14 -29 25 -59 25 -67 0 -8 4 -15 8 -15 9 0
42 -97 42 -123 0 -10 7 -17 15 -17 8 0 15 -9 15 -19 0 -33 80 -175 118 -209
34 -31 41 -33 87 -29 93 9 145 28 213 78 78 59 219 219 202 229 -9 6 -9 13 0
31 l13 24 -20 -20 c-11 -11 -18 -24 -16 -28 3 -4 -37 -6 -88 -5 l-93 3 -34 80
c-34 81 -50 125 -187 500 -94 256 -212 545 -230 564 -11 11 -14 9 -18 -15z"/>
<path d="M2910 5591 c-146 -146 -236 -255 -244 -292 -11 -55 -7 -374 5 -410
17 -51 47 -77 106 -96 45 -14 63 -15 108 -6 66 14 96 35 127 88 23 40 23 40
22 416 0 206 -5 382 -10 391 -7 13 -29 -4 -114 -91z"/>
<path d="M4808 5518 c-98 -99 -178 -188 -178 -196 0 -8 12 -53 26 -101 56
-186 87 -272 94 -264 10 11 89 226 159 433 32 96 68 202 80 234 12 33 21 63
21 68 0 26 -43 -10 -202 -174z"/>
<path d="M6973 5664 c-23 -26 -37 -34 -51 -30 -13 4 -22 1 -25 -8 -4 -9 -1
-13 6 -10 7 2 28 -11 46 -30 l34 -35 -33 -35 c-19 -19 -38 -32 -43 -29 -6 3
-7 1 -4 -4 10 -17 -75 -119 -98 -118 -11 0 -19 5 -18 11 1 7 -5 11 -15 10 -9
0 -16 5 -14 12 1 8 -2 10 -8 7 -6 -4 -19 0 -28 8 -44 39 -168 49 -219 17 -66
-40 -106 -141 -98 -243 4 -45 12 -57 25 -37 6 8 10 10 10 4 0 -14 157 -16 184
-2 12 6 39 26 62 44 43 35 54 35 54 0 0 -32 28 -43 122 -51 71 -6 85 -10 81
-22 -3 -8 0 -18 6 -23 16 -9 28 -104 30 -240 2 -79 6 -109 18 -122 14 -16 14
-19 -1 -33 -27 -27 -39 -58 -38 -93 1 -21 -2 -30 -9 -26 -8 4 -8 0 0 -14 6
-11 11 -69 11 -129 0 -118 13 -183 35 -183 8 0 15 -5 15 -11 0 -7 10 -9 27 -5
17 5 29 3 34 -6 6 -10 17 -10 54 0 25 7 62 12 83 12 52 0 108 38 215 145 48
48 90 85 94 81 3 -3 1 -6 -6 -6 -7 0 -9 -5 -6 -10 4 -6 -12 -38 -34 -73 -45
-68 -54 -117 -22 -117 10 0 24 -6 31 -14 6 -8 18 -12 26 -9 8 3 14 0 14 -7 0
-9 19 -11 78 -6 153 13 187 28 306 136 21 19 44 40 51 45 6 6 33 30 59 55 26
25 47 38 46 30 -4 -25 1 -56 6 -43 8 19 114 -25 149 -62 17 -17 42 -55 57 -83
19 -34 32 -50 42 -46 8 3 17 1 20 -4 3 -6 27 -8 53 -6 27 2 68 6 93 8 63 5
109 25 171 73 79 61 216 204 202 210 -7 3 -13 11 -13 19 0 9 -5 12 -10 9 -6
-4 -8 -10 -5 -14 8 -15 -175 -13 -193 1 -13 11 -14 11 -8 0 6 -10 2 -13 -15
-10 -20 2 -28 16 -50 83 -14 44 -24 85 -22 92 4 9 -47 13 -199 15 -111 2 -209
1 -215 -1 -7 -2 -13 -11 -13 -20 0 -28 -47 -165 -58 -169 -6 -2 2 31 19 73 35
91 37 109 4 40 -13 -27 -24 -44 -24 -37 -1 6 -5 12 -10 12 -6 0 -7 -17 -4 -37
7 -45 -6 -38 -17 9 l-8 33 -1 -42 c-1 -24 4 -43 12 -47 6 -2 -41 -5 -106 -4
-64 0 -120 4 -123 9 -3 5 2 32 11 60 11 33 20 47 25 39 5 -9 8 -5 8 11 0 26
11 81 18 88 2 2 4 -5 4 -17 0 -12 5 -22 10 -22 12 0 12 2 0 34 -5 15 -6 26 0
26 5 0 8 8 8 18 -1 9 17 69 40 132 22 63 70 201 107 305 36 105 86 248 111
318 25 71 43 132 39 135 -11 11 -206 -192 -286 -298 -71 -94 -82 -116 -113
-215 -84 -268 -127 -395 -156 -470 -18 -44 -34 -96 -37 -115 -2 -19 -7 -42
-10 -50 -9 -26 -24 29 -18 69 5 33 4 34 -5 11 -6 -14 -9 -35 -7 -48 4 -19 2
-20 -11 -10 -13 11 -14 11 -8 0 6 -10 -14 -12 -101 -11 -59 1 -103 4 -96 6 7
2 9 11 6 19 -5 13 -7 13 -15 2 -5 -8 -8 20 -8 72 1 47 1 96 0 110 l-2 25 -8
-25 c-5 -14 -9 87 -10 235 -1 143 -5 307 -9 365 l-6 105 -106 1 c-58 0 -113 4
-123 7 -13 5 -16 24 -16 117 0 124 -6 132 -57 74z m324 -1051 c-2 -21 -4 -4
-4 37 0 41 2 58 4 38 2 -21 2 -55 0 -75z"/>
<path d="M3395 5613 l-80 -76 -6 -326 c-6 -355 -11 -390 -73 -495 -74 -127
-292 -207 -477 -176 -51 9 -68 15 -58 22 10 7 7 7 -8 3 -13 -3 -28 -3 -35 2
-7 4 -19 8 -25 9 -26 4 -83 46 -77 56 5 7 2 8 -6 3 -16 -10 -81 60 -112 120
-44 83 -49 128 -58 455 -5 173 -9 350 -9 393 -1 46 -5 77 -11 75 -5 -1 -41
-46 -80 -98 -40 -52 -78 -103 -86 -112 -7 -10 -12 -18 -9 -18 3 0 -6 -18 -20
-40 -14 -22 -25 -43 -25 -47 0 -5 -9 -19 -19 -32 -15 -20 -18 -21 -18 -5 0 11
5 26 11 34 9 13 9 13 -5 3 -9 -7 -20 -9 -24 -5 -5 4 -4 0 0 -8 5 -8 -8 0 -29
18 -21 19 -49 38 -62 44 -13 6 -22 14 -20 17 2 3 -6 7 -17 8 -12 1 -52 5 -89
9 -36 3 -78 4 -92 0 -62 -15 -53 -92 16 -127 68 -35 222 -99 247 -104 14 -2
56 -26 94 -51 103 -71 147 -157 149 -292 1 -73 -29 -169 -63 -203 -11 -11 -17
-19 -15 -19 3 0 -5 -11 -17 -24 -12 -14 -24 -23 -26 -20 -2 2 3 12 12 22 11
12 13 22 6 32 -8 12 -9 11 -7 -5 2 -12 -2 -19 -10 -17 -8 1 -11 -2 -6 -9 5 -9
2 -10 -11 -5 -16 6 -16 4 -4 -10 11 -14 11 -18 -5 -29 -18 -14 -46 -10 -46 6
0 5 -7 9 -16 9 -13 0 -11 -4 6 -18 l23 -19 -42 -16 c-49 -20 -69 -21 -26 -2
32 15 17 18 -25 6 -17 -5 -29 -2 -37 8 -8 11 -12 12 -13 4 0 -7 -10 -13 -22
-12 -20 0 -20 1 -5 8 15 5 12 9 -17 19 -20 7 -41 10 -46 7 -6 -4 -33 -1 -61 6
l-51 13 36 13 c20 6 46 10 58 8 21 -4 22 -3 6 9 -10 7 -18 18 -18 25 0 6 -9
11 -20 11 -11 0 -20 -7 -20 -15 0 -8 -3 -15 -6 -15 -10 0 -34 28 -34 40 0 7
-27 10 -79 9 -79 -2 -106 4 -96 22 4 5 2 9 -4 9 -5 0 -14 -6 -18 -14 -4 -8
-19 -16 -33 -18 -18 -2 -24 -8 -22 -22 3 -15 1 -16 -11 -5 -12 11 -11 16 7 30
20 16 20 18 3 53 -20 43 -14 48 8 6 9 -16 20 -30 25 -30 13 0 17 31 8 64 -6
23 -3 33 12 46 19 16 17 30 -3 30 -6 0 -8 -3 -4 -6 3 -4 1 -12 -6 -20 -30 -34
-35 -42 -29 -50 4 -4 1 -4 -5 0 -9 5 -6 18 14 49 14 23 27 44 29 46 1 1 18 -8
36 -22 49 -37 107 -64 174 -80 63 -16 205 -27 198 -16 -2 4 9 10 25 14 24 5
30 12 35 43 10 63 7 78 -21 107 -16 16 -22 25 -15 21 6 -4 12 -2 12 4 0 7 -8
9 -19 5 -11 -3 -22 -2 -25 4 -3 5 -38 22 -76 37 -49 19 -67 30 -58 36 9 6 6 7
-8 3 -12 -3 -43 4 -70 16 l-49 21 25 13 c30 17 21 19 -14 4 -29 -14 -45 -6
-114 57 -32 28 -41 43 -36 58 4 17 3 18 -5 6 -15 -22 -52 67 -58 140 -6 67 22
204 40 193 6 -4 7 -1 3 6 -5 7 0 21 10 32 34 37 -6 18 -68 -33 -105 -86 -276
-259 -325 -328 -39 -55 -46 -72 -46 -110 1 -54 13 -131 23 -145 4 -5 10 -23
14 -39 9 -38 35 -76 52 -76 8 0 14 -3 14 -8 0 -4 16 -25 35 -47 19 -22 35 -44
35 -50 0 -5 5 -3 10 5 8 13 10 12 10 -4 0 -12 5 -16 15 -12 30 11 13 -11 -92
-116 -99 -99 -106 -109 -105 -144 2 -52 60 -133 117 -164 25 -14 43 -30 41
-37 -3 -7 1 -10 8 -7 8 3 17 1 21 -5 3 -6 16 -11 28 -11 12 0 36 -8 52 -17 44
-24 210 -29 304 -9 76 16 148 45 191 79 24 18 146 126 178 157 14 13 15 13 10
-1 -5 -12 9 -33 40 -66 59 -61 99 -91 182 -134 62 -32 70 -34 180 -36 111 -2
173 8 254 40 50 20 162 77 151 77 -5 0 4 8 20 19 31 19 40 27 184 165 46 45
76 69 67 55 -14 -22 -16 -46 -13 -144 3 -67 9 -121 16 -128 6 -6 11 -28 11
-49 0 -51 26 -61 139 -52 83 6 88 8 154 57 38 28 86 62 107 76 48 33 238 211
225 211 -6 0 -10 36 -9 87 1 49 -1 70 -3 48 -2 -22 -11 -44 -19 -48 -8 -4 -14
-16 -14 -27 0 -15 -8 -18 -42 -18 -62 0 -155 -9 -166 -16 -12 -7 -22 262 -23
629 -1 323 -9 477 -24 481 -5 2 -46 -31 -90 -73z m-1916 -889 c-12 -15 -11
-16 10 -9 27 8 22 -9 -8 -24 -14 -8 -17 -6 -16 7 1 19 13 42 22 42 3 0 -1 -7
-8 -16z m-32 -33 c0 -11 -5 -18 -9 -15 -4 3 -5 11 -1 19 7 21 12 19 10 -4z
m56 -52 c7 -1 16 -1 20 0 5 1 5 -4 1 -10 -4 -8 1 -9 17 -4 16 4 20 3 11 -3
-10 -7 -6 -12 17 -22 17 -7 31 -17 31 -22 0 -11 3 -12 -77 37 -35 21 -63 42
-63 47 0 5 7 2 16 -6 8 -9 21 -17 27 -17z m92 -19 c-3 -5 -1 -10 6 -10 7 0 10
-2 7 -5 -3 -3 -13 -2 -22 1 -14 5 -15 9 -4 15 17 11 20 11 13 -1z m2058 -67
c-23 -2 -64 -2 -90 0 -26 2 -7 3 42 3 50 0 71 -1 48 -3z m-1843 -20 c0 -5 -13
-8 -29 -8 -16 0 -27 3 -24 8 2 4 15 7 29 7 13 0 24 -3 24 -7z m153 0 c-7 -2
-21 -2 -30 0 -10 3 -4 5 12 5 17 0 24 -2 18 -5z m-45 -20 c-16 -2 -40 -2 -55
0 -16 2 -3 4 27 4 30 0 43 -2 28 -4z"/>
<path d="M3895 5660 c-47 -23 -65 -36 -88 -70 -27 -40 -20 -46 16 -13 17 17
56 45 85 63 73 44 65 57 -13 20z"/>
<path d="M5368 5644 c-68 -36 -168 -223 -277 -512 -33 -89 -87 -227 -120 -305
-32 -78 -64 -162 -71 -187 -6 -25 -13 -53 -16 -62 -3 -10 2 -19 15 -23 11 -3
23 -16 27 -28 7 -24 82 -124 118 -160 90 -88 216 -131 361 -123 39 2 72 5 75
6 3 1 9 2 14 1 30 -6 194 68 261 117 92 68 135 93 128 75 -5 -12 -3 -14 7 -8
10 6 12 4 7 -8 -3 -10 -2 -17 3 -17 6 0 10 -7 10 -17 0 -9 3 -14 6 -10 3 3 22
-9 41 -26 52 -48 131 -89 198 -103 79 -17 189 -17 247 0 100 31 223 100 323
183 108 89 220 199 194 190 -9 -3 -23 0 -30 6 -8 8 -8 5 1 -7 14 -18 13 -19
-3 -13 -10 4 -16 3 -12 -2 8 -14 -35 -41 -53 -34 -9 4 -13 2 -9 -4 4 -6 0 -14
-9 -17 -8 -3 -12 -2 -9 4 10 16 -18 12 -44 -7 -14 -9 -21 -12 -18 -5 4 6 -2
14 -14 17 -13 4 -25 2 -29 -5 -5 -8 -18 -10 -35 -6 -16 4 -24 3 -21 -3 3 -5
-14 -11 -38 -13 -37 -2 -42 -1 -33 11 10 12 7 13 -18 8 l-30 -7 24 20 c13 11
21 26 18 34 -4 10 2 16 16 19 15 2 8 6 -22 12 l-44 8 26 23 c15 13 27 31 27
41 0 16 -10 18 -82 18 l-83 -1 3 -29 c4 -26 2 -28 -12 -16 -23 20 -20 41 12
70 33 30 45 66 28 81 -14 10 -26 4 -26 -14 0 -6 4 -5 9 3 6 9 11 10 15 2 4 -6
1 -12 -6 -12 -7 -1 -20 -2 -28 -3 -8 0 -14 -9 -14 -18 1 -10 -3 -18 -10 -19
-6 0 -22 -2 -36 -3 -14 -2 -27 0 -30 5 -3 4 -12 4 -20 -1 -13 -8 -11 -12 8
-26 14 -9 21 -22 18 -31 -3 -8 -1 -11 4 -8 6 4 8 -6 6 -24 -4 -37 9 -49 51
-46 18 1 30 -2 28 -6 -3 -4 0 -9 7 -11 7 -3 5 -7 -6 -11 -10 -4 -15 -3 -11 3
3 6 1 10 -5 10 -6 0 -13 -7 -16 -15 -4 -8 -10 -12 -15 -9 -5 3 -6 10 -3 16 5
7 1 9 -9 5 -15 -6 -33 8 -89 71 -18 19 -23 48 -12 76 3 9 9 14 13 12 3 -2 7 9
8 25 1 16 -2 29 -6 29 -5 0 -12 12 -15 26 -11 44 -16 22 -5 -24 6 -26 6 -50 0
-59 -7 -13 -13 -8 -29 28 -13 28 -21 37 -21 24 0 -11 6 -29 14 -39 8 -11 15
-25 15 -30 0 -17 -36 46 -44 77 -5 21 -4 27 5 21 7 -4 10 -2 7 7 -3 8 -11 13
-18 11 -9 -2 -11 8 -6 35 4 29 3 33 -4 18 -9 -17 -10 -16 -7 8 3 15 0 27 -6
27 -6 0 -8 22 -4 58 3 34 2 49 -3 37 -12 -28 -12 111 0 201 11 87 51 210 67
207 6 -1 9 6 6 16 -3 10 12 38 37 69 22 29 36 52 31 52 -10 0 -87 -66 -167
-143 l-52 -49 -7 -178 -7 -177 -91 -7 c-49 -3 -178 -6 -285 -6 l-195 0 6 -60
c14 -126 40 -143 219 -140 160 3 155 4 127 -19 l-24 -20 33 1 c23 1 39 9 53
26 10 14 22 22 26 19 3 -4 1 -12 -5 -20 -8 -10 -6 -16 9 -25 31 -20 22 -32
-26 -32 -25 0 -45 -4 -45 -10 0 -18 -69 -22 -197 -12 -70 5 -129 8 -131 7 -1
-1 0 -10 4 -19 4 -11 18 -16 45 -16 21 0 39 -4 39 -9 0 -6 19 -12 43 -14 23
-2 5 -4 -40 -5 -68 -2 -83 1 -83 13 0 8 -9 15 -20 15 -12 0 -20 7 -21 18 0 14
-2 14 -9 -3 -7 -16 -9 -17 -9 -3 -1 9 -4 24 -8 34 -4 12 -3 15 5 10 8 -5 12 0
12 13 0 12 7 21 15 21 12 0 12 3 -3 20 -9 11 -20 30 -24 43 -7 20 -7 20 -4 -3
2 -14 7 -32 10 -41 5 -10 2 -19 -7 -22 -11 -4 -13 0 -10 16 5 17 3 20 -7 10
-8 -7 -10 -19 -5 -30 19 -45 15 -97 -8 -106 -8 -3 -13 9 -15 36 -1 22 -5 44
-8 49 -6 9 -45 -9 -42 -20 1 -4 -2 -15 -7 -26 -5 -11 -3 -21 5 -26 8 -5 9 -10
2 -14 -6 -4 -8 -14 -5 -24 3 -9 -8 -1 -25 18 -16 19 -28 37 -25 40 3 3 8 -1
10 -7 3 -7 8 -13 12 -13 4 0 8 6 8 13 0 6 3 23 7 37 6 20 5 22 -4 10 -10 -13
-11 -12 -7 6 2 12 -1 21 -8 21 -10 0 -11 -7 -4 -25 5 -14 7 -27 4 -30 -3 -3
-10 9 -16 26 -6 18 -15 32 -20 32 -6 0 -5 -9 1 -21 7 -11 9 -23 7 -26 -4 -4
-18 27 -22 47 0 3 -7 16 -14 29 -7 12 -11 31 -8 42 3 10 0 20 -6 22 -13 4 -19
68 -22 242 -2 150 3 237 14 231 3 -2 6 9 7 24 1 40 62 162 76 154 7 -4 8 -3 4
5 -9 13 12 44 24 36 4 -3 7 3 6 13 0 10 5 16 14 14 8 -2 12 0 7 4 -4 4 0 16
10 26 19 22 17 22 -19 2z m579 -823 c13 -26 47 -74 77 -107 l54 -60 -32 -20
c-28 -19 -33 -19 -45 -6 -12 12 -11 13 7 8 11 -4 23 -3 26 2 3 6 -2 9 -11 8
-9 0 -18 5 -21 13 -3 9 0 11 9 6 11 -6 12 -5 2 6 -15 16 -17 33 -3 24 15 -9
12 11 -3 24 -17 13 -28 5 -20 -15 4 -12 -3 -14 -31 -12 -24 1 -33 5 -26 12 14
14 13 29 -1 20 -8 -5 -8 -1 0 14 6 12 16 24 21 27 6 3 10 11 10 16 0 6 -5 7
-10 4 -6 -4 -10 -3 -9 2 4 22 -2 32 -16 27 -8 -4 -15 -1 -15 6 0 6 5 8 10 5 6
-3 10 -2 10 4 0 5 -4 13 -10 16 -12 7 -13 25 -2 25 4 -1 17 -22 29 -49z m-204
-98 c-13 -2 -33 -2 -45 0 -13 2 -3 4 22 4 25 0 35 -2 23 -4z m94 1 c-3 -3 -12
-4 -19 -1 -8 3 -5 6 6 6 11 1 17 -2 13 -5z m-403 -108 c-5 -13 -8 -14 -28 -1
-20 13 -23 27 -17 65 1 3 12 -7 26 -22 14 -15 22 -33 19 -42z m77 17 c-8 -3
-9 -8 -3 -12 20 -13 -13 -28 -38 -18 l-25 9 30 14 c17 7 35 13 40 13 6 0 4 -3
-4 -6z m457 -12 c11 -6 10 -10 -4 -15 -9 -3 -19 -4 -22 -1 -3 3 1 5 9 5 11 0
11 2 -1 10 -8 5 -10 10 -5 10 6 0 16 -4 23 -9z m12 -26 c0 -2 -10 -9 -22 -15
-22 -11 -22 -10 -4 4 21 17 26 19 26 11z m500 -5 c0 -5 -5 -10 -11 -10 -5 0
-7 5 -4 10 3 6 8 10 11 10 2 0 4 -4 4 -10z m-995 -10 c3 -5 2 -10 -4 -10 -5 0
-13 5 -16 10 -3 6 -2 10 4 10 5 0 13 -4 16 -10z m970 -30 c3 -6 -1 -7 -9 -4
-18 7 -21 14 -7 14 6 0 13 -4 16 -10z m-817 -17 c-10 -2 -26 -2 -35 0 -10 3
-2 5 17 5 19 0 27 -2 18 -5z m869 1 c-3 -3 -12 -4 -19 -1 -8 3 -5 6 6 6 11 1
17 -2 13 -5z m166 -1 c3 -5 -16 -9 -42 -9 -39 -2 -42 -1 -16 6 42 11 53 11 58
3z m-1206 -279 c-3 -3 -12 -4 -19 -1 -8 3 -5 6 6 6 11 1 17 -2 13 -5z"/>
<path d="M5951 4756 c-14 -17 -7 -36 12 -35 9 0 8 2 -1 6 -6 2 -9 9 -6 14 3 6
12 5 22 -3 16 -12 16 -11 2 7 -8 11 -15 21 -16 23 -1 1 -7 -4 -13 -12z"/>
<path d="M6020 4686 c0 -2 7 -9 15 -16 13 -11 14 -10 9 4 -5 14 -24 23 -24 12z"/>
<path d="M5400 4642 c0 -12 19 -26 26 -19 2 2 -2 10 -11 17 -9 8 -15 8 -15 2z"/>
<path d="M5478 4613 c7 -3 16 -2 19 1 4 3 -2 6 -13 5 -11 0 -14 -3 -6 -6z"/>
<path d="M5420 5650 c-9 -6 -10 -10 -3 -10 6 0 15 5 18 10 8 12 4 12 -15 0z"/>
<path d="M7700 5460 l-125 -5 -3 -60 c-2 -33 -1 -78 3 -101 5 -38 8 -41 33
-37 50 8 59 14 37 23 -16 7 -13 9 15 9 30 1 44 11 103 76 38 41 67 81 65 88
-2 9 -33 11 -128 7z"/>
<path d="M5605 5436 c-31 -13 -95 -79 -95 -97 0 -6 -3 -8 -7 -6 -5 3 -9 -17
-10 -44 l-3 -49 58 -1 c251 -6 251 -6 254 21 5 44 -11 122 -29 143 -39 43
-111 58 -168 33z"/>
<path d="M8282 5233 c-24 -65 -56 -153 -71 -195 l-29 -78 139 0 c77 0 139 3
139 8 0 14 -125 382 -130 382 -3 0 -25 -53 -48 -117z"/>
<path d="M1745 5080 c-3 -5 -1 -10 4 -10 6 0 11 5 11 10 0 6 -2 10 -4 10 -3 0
-8 -4 -11 -10z"/>
<path d="M2194 5070 c0 -11 2 -17 5 -15 2 3 11 -1 19 -8 13 -10 14 -9 4 10
-16 30 -28 35 -28 13z"/>
<path d="M1900 5010 c-9 -6 -10 -10 -3 -10 6 0 15 5 18 10 8 12 4 12 -15 0z"/>
<path d="M1940 4987 c27 -15 36 -14 25 2 -3 6 -16 11 -28 11 -21 0 -21 -1 3
-13z"/>
<path d="M6362 4980 c0 -14 2 -19 5 -12 2 6 2 18 0 25 -3 6 -5 1 -5 -13z"/>
<path d="M2251 4964 c0 -11 3 -14 6 -6 3 7 2 16 -1 19 -3 4 -6 -2 -5 -13z"/>
<path d="M5261 4924 c0 -11 3 -14 6 -6 3 7 2 16 -1 19 -3 4 -6 -2 -5 -13z"/>
<path d="M2261 4914 c0 -11 3 -14 6 -6 3 7 2 16 -1 19 -3 4 -6 -2 -5 -13z"/>
<path d="M5460 4913 c2 -32 39 -78 70 -88 23 -8 30 -14 20 -18 -12 -4 -11 -6
3 -6 29 -2 19 17 -19 35 -23 11 -41 29 -50 51 -13 31 -25 43 -24 26z"/>
<path d="M2041 4894 c0 -11 3 -14 6 -6 3 7 2 16 -1 19 -3 4 -6 -2 -5 -13z"/>
<path d="M6410 4880 c0 -36 112 -121 157 -119 16 1 15 2 -2 8 -50 16 -103 52
-128 87 -15 22 -27 32 -27 24z"/>
<path d="M7322 4855 c0 -16 2 -22 5 -12 2 9 2 23 0 30 -3 6 -5 -1 -5 -18z"/>
<path d="M5261 4854 c0 -11 3 -14 6 -6 3 7 2 16 -1 19 -3 4 -6 -2 -5 -13z"/>
<path d="M7302 4825 c0 -16 2 -22 5 -12 2 9 2 23 0 30 -3 6 -5 -1 -5 -18z"/>
<path d="M1578 4821 c-15 -15 -14 -16 17 -16 18 0 37 4 41 8 5 4 0 5 -10 1
-15 -6 -17 -4 -11 6 5 8 4 11 -3 6 -5 -3 -12 -2 -14 2 -1 5 -11 2 -20 -7z"/>
<path d="M6211 4823 c-1 -12 4 -25 9 -28 12 -7 12 2 0 30 -8 19 -9 19 -9 -2z"/>
<path d="M2256 4805 c-9 -26 -7 -32 5 -12 6 10 9 21 6 23 -2 3 -7 -2 -11 -11z"/>
<path d="M5506 4795 c-6 -16 -9 -17 -16 -5 -8 13 -10 12 -10 -2 0 -9 4 -19 9
-22 12 -8 34 20 29 36 -3 7 -7 5 -12 -7z"/>
<path d="M5590 4800 c8 -5 33 -9 55 -9 35 1 37 2 15 9 -14 4 -38 8 -55 9 -23
0 -26 -2 -15 -9z"/>
<path d="M5753 4803 c9 -2 23 -2 30 0 6 3 -1 5 -18 5 -16 0 -22 -2 -12 -5z"/>
<path d="M1635 4790 c-3 -5 -12 -7 -20 -3 -12 4 -15 -3 -15 -31 0 -28 4 -36
18 -36 9 0 23 9 30 20 10 17 16 19 34 9 16 -9 18 -13 7 -20 -8 -5 -9 -9 -3 -9
6 0 17 6 23 14 9 11 7 15 -11 19 -12 4 -20 9 -17 12 3 3 23 -1 45 -9 21 -8 31
-15 22 -15 -18 -1 -26 -21 -9 -21 6 0 13 5 16 10 9 14 72 12 78 -2 3 -8 6 -6
6 5 1 13 -7 17 -34 17 -19 0 -58 11 -87 25 -56 27 -74 30 -83 15z m30 -20 c-3
-5 -10 -10 -16 -10 -5 0 -9 5 -9 10 0 6 7 10 16 10 8 0 12 -4 9 -10z"/>
<path d="M7343 4760 c0 -25 2 -35 4 -22 2 12 2 32 0 45 -2 12 -4 2 -4 -23z"/>
<path d="M6505 4759 l30 -21 -30 6 c-23 5 -26 4 -13 -4 10 -6 29 -8 44 -4 l27
7 -34 18 c-46 25 -61 24 -24 -2z"/>
<path d="M6884 4759 c0 -13 3 -15 13 -7 7 6 13 12 13 13 0 2 -6 5 -13 8 -7 3
-13 -3 -13 -14z"/>
<path d="M5638 4763 c23 -2 61 -2 85 0 23 2 4 4 -43 4 -47 0 -66 -2 -42 -4z"/>
<path d="M6608 4753 c6 -2 18 -2 25 0 6 3 1 5 -13 5 -14 0 -19 -2 -12 -5z"/>
<path d="M6937 4731 c23 -22 39 -28 28 -11 -3 5 -16 15 -28 21 l-22 11 22 -21z"/>
<path d="M6618 4733 c7 -3 16 -2 19 1 4 3 -2 6 -13 5 -11 0 -14 -3 -6 -6z"/>
<path d="M1778 4723 c7 -3 16 -2 19 1 4 3 -2 6 -13 5 -11 0 -14 -3 -6 -6z"/>
<path d="M1908 4723 c7 -3 16 -2 19 1 4 3 -2 6 -13 5 -11 0 -14 -3 -6 -6z"/>
<path d="M1280 4710 c-9 -6 -10 -10 -3 -10 6 0 15 5 18 10 8 12 4 12 -15 0z"/>
<path d="M2168 4702 c4 -11 7 -12 10 -4 3 10 7 10 20 0 14 -10 15 -10 5 2 -18
20 -43 22 -35 2z"/>
<path d="M2217 4703 c3 -7 6 -13 8 -13 2 0 5 6 8 13 3 8 -1 14 -8 14 -7 0 -11
-6 -8 -14z"/>
<path d="M4890 4700 c0 -11 2 -20 4 -20 2 0 6 9 9 20 3 11 1 20 -4 20 -5 0 -9
-9 -9 -20z"/>
<path d="M6245 4710 c-3 -6 -3 -10 2 -9 22 4 35 -2 30 -14 -6 -16 0 -25 33
-52 l25 -20 -16 20 c-9 11 -14 27 -11 35 2 8 1 12 -3 8 -5 -5 -13 2 -19 14
-13 25 -31 34 -41 18z"/>
<path d="M7552 4700 c0 -14 2 -19 5 -12 2 6 2 18 0 25 -3 6 -5 1 -5 -13z"/>
<path d="M6560 4656 c0 -11 8 -16 28 -15 15 0 21 3 12 6 -8 3 -21 10 -27 16
-9 7 -13 5 -13 -7z"/>
<path d="M7353 4605 c0 -27 2 -38 4 -22 2 15 2 37 0 50 -2 12 -4 0 -4 -28z"/>
<path d="M1890 4630 c18 -12 30 -13 30 -2 0 4 -10 9 -22 9 -18 2 -20 0 -8 -7z"/>
<path d="M3116 4628 c3 -5 10 -6 15 -3 13 9 11 12 -6 12 -8 0 -12 -4 -9 -9z"/>
<path d="M3537 4625 c-4 -8 -2 -17 3 -20 6 -4 10 3 10 14 0 25 -6 27 -13 6z"/>
<path d="M6805 4629 c-4 -6 2 -19 13 -29 18 -17 22 -17 33 -4 10 12 9 13 -6 8
-13 -5 -16 -4 -11 4 5 8 2 10 -8 6 -9 -3 -16 -1 -16 4 0 6 8 13 18 15 15 4 15
5 0 6 -9 0 -20 -4 -23 -10z"/>
<path d="M7521 4624 c0 -11 3 -14 6 -6 3 7 2 16 -1 19 -3 4 -6 -2 -5 -13z"/>
<path d="M7816 4624 c-9 -24 -7 -27 9 -10 17 17 19 26 6 26 -5 0 -12 -7 -15
-16z"/>
<path d="M8571 4630 c0 -8 4 -22 9 -30 12 -18 12 -2 0 25 -6 13 -9 15 -9 5z"/>
<path d="M3570 4609 c0 -5 5 -7 10 -4 6 3 10 8 10 11 0 2 -4 4 -10 4 -5 0 -10
-5 -10 -11z"/>
<path d="M7850 4610 c0 -5 8 -13 18 -19 14 -8 15 -10 2 -15 -8 -2 -22 -7 -30
-9 -8 -3 24 -6 73 -6 87 -1 102 6 74 33 -14 15 -137 28 -137 16z"/>
<path d="M2105 4600 c3 -5 10 -10 16 -10 5 0 9 5 9 10 0 6 -7 10 -16 10 -8 0
-12 -4 -9 -10z"/>
<path d="M3060 4600 c-9 -6 -10 -10 -3 -10 6 0 15 5 18 10 8 12 4 12 -15 0z"/>
<path d="M6720 4600 c0 -5 -18 -10 -41 -10 -24 0 -38 -4 -34 -10 3 -5 16 -8
28 -6 12 3 37 5 55 5 35 1 48 31 12 31 -11 0 -20 -4 -20 -10z"/>
<path d="M7800 4575 c0 -8 4 -15 10 -15 5 0 7 7 4 15 -4 8 -8 15 -10 15 -2 0
-4 -7 -4 -15z"/>
<path d="M3488 4104 c-9 -20 -9 -30 0 -45 7 -10 12 -27 12 -37 0 -11 11 -36
25 -56 14 -20 25 -39 25 -41 0 -2 11 -16 25 -31 14 -15 25 -30 25 -33 0 -8 69
-86 153 -175 33 -33 63 -69 68 -78 6 -11 16 -15 27 -11 20 7 18 4 -61 -86 -41
-46 -47 -59 -47 -97 0 -60 21 -106 61 -136 50 -37 99 -50 147 -39 40 9 153 73
202 115 20 17 22 18 10 2 -12 -15 -12 -20 -2 -24 7 -2 34 -19 60 -37 79 -55
262 -143 352 -170 49 -15 77 -25 158 -56 12 -5 22 -17 23 -26 1 -31 34 -77 75
-105 32 -22 50 -27 99 -28 52 0 67 4 112 35 28 19 77 59 110 89 52 48 65 55
115 61 39 5 55 11 54 21 -3 22 -15 28 -30 15 -11 -10 -17 -8 -25 6 -11 17 -12
17 -25 -1 -8 -10 -19 -16 -24 -13 -4 3 -15 -3 -22 -14 -14 -18 -33 -27 -28
-11 3 8 -6 12 -29 12 -16 0 -16 -2 -3 -11 12 -9 12 -10 -3 -5 -10 3 -24 6 -30
6 -7 0 -6 5 3 10 11 8 8 9 -12 4 -19 -4 -28 -2 -28 6 0 7 -6 10 -14 7 -9 -4
-31 12 -55 38 -45 48 -60 102 -43 147 l11 29 -40 -33 c-22 -18 -58 -49 -82
-70 -40 -35 -45 -36 -87 -28 -43 9 -131 40 -168 59 -9 5 -48 22 -87 37 -102
41 -241 126 -237 146 4 23 -36 11 -43 -13 -7 -20 -25 -26 -25 -9 0 6 -5 10
-11 10 -6 0 -9 -6 -6 -13 7 -18 -17 -18 -83 0 -59 17 -127 73 -114 94 4 7 3 9
-4 5 -12 -7 -25 41 -22 87 1 18 2 48 3 67 1 25 -2 35 -13 35 -17 0 -15 -2
-108 88 -39 38 -101 105 -139 150 -98 117 -158 177 -177 177 -9 0 -22 -12 -28
-26z"/>
<path d="M4246 3705 c-2 -7 3 -19 12 -27 9 -8 13 -8 9 -1 -4 6 -3 13 2 15 5 1
3 8 -4 15 -10 10 -14 9 -19 -2z"/>
<path d="M5893 3612 c-73 -69 -97 -105 -106 -157 -14 -83 -87 -155 -234 -232
-18 -9 -33 -20 -33 -24 0 -5 -18 -14 -40 -20 -22 -7 -40 -18 -40 -26 0 -7 3
-13 8 -13 23 1 138 32 148 41 7 6 18 8 25 4 6 -4 14 -4 18 1 16 23 169 58 259
61 119 3 157 20 260 120 42 41 67 69 55 64 -56 -27 -149 -5 -203 49 -46 46
-71 131 -50 169 6 13 10 24 8 26 -2 2 -35 -26 -75 -63z"/>
<path d="M4290 3536 c-15 -42 -11 -55 6 -17 8 19 12 36 9 39 -2 3 -9 -7 -15
-22z"/>
<path d="M4040 3461 c0 -5 7 -12 16 -15 14 -5 15 -4 4 9 -14 17 -20 19 -20 6z"/>
<path d="M4121 3429 c17 -11 39 -12 39 -1 0 4 -12 8 -27 9 -19 1 -22 -1 -12
-8z"/>
<path d="M5210 3406 c0 -2 8 -10 18 -17 15 -13 16 -12 3 4 -13 16 -21 21 -21
13z"/>
</g>
</svg>
